<svg xmlns="http://www.w3.org/2000/svg" viewBox="0 0 1063.87 174.41"><defs><style>.a{fill:#231f20;}.b{fill:#050606;}</style></defs><title>MG</title><path class="a" d="M232.53,82.93l1,37.6H212.7V54H242l12,35.81h.47L264.93,54h30.21v66.55H273.33L274,83.12l-.56-.09L261,120.53H245.22L233,82.93Z"/><path class="a" d="M331.14,54h23.78l25.94,66.55H356.52L353,110.76H331.89l-3.29,9.78H304.91ZM342.7,77.2l-5.45,16.45h10.81Z"/><path class="a" d="M414.42,122.41a44.94,44.94,0,0,1-7.94-.7,43.28,43.28,0,0,1-7.52-2.06,47,47,0,0,1-6.81-3.18,34.26,34.26,0,0,1-5.73-4.07L400,97.6a21.86,21.86,0,0,0,6.25,4.51,17.59,17.59,0,0,0,8,2,8.66,8.66,0,0,0,3.43-.66,2.43,2.43,0,0,0,1.55-2.45,2.52,2.52,0,0,0-.52-1.6A5.88,5.88,0,0,0,417,98a29.76,29.76,0,0,0-3.62-1.55q-2.3-.85-5.78-2a49,49,0,0,1-6.49-2.68,22.88,22.88,0,0,1-5.5-3.81,16.73,16.73,0,0,1-3.81-5.41A18.49,18.49,0,0,1,390.36,75a20.53,20.53,0,0,1,2.54-10.55,22.2,22.2,0,0,1,6.53-7.11,26.74,26.74,0,0,1,9-4,41.22,41.22,0,0,1,9.87-1.22,38.21,38.21,0,0,1,13.39,2.54,35.81,35.81,0,0,1,12,7.33L429.74,76.16a14.56,14.56,0,0,0-5.55-4.28,14.87,14.87,0,0,0-5.92-1.46,9.36,9.36,0,0,0-3.95.71,2.38,2.38,0,0,0-1.5,2.3,2.41,2.41,0,0,0,1.55,2.26,42.94,42.94,0,0,0,5,1.88q3.57,1.13,7.52,2.63a31.92,31.92,0,0,1,7.29,3.9,20.52,20.52,0,0,1,5.5,5.88,16.1,16.1,0,0,1,2.16,8.65,21.84,21.84,0,0,1-2.4,10.48,22.64,22.64,0,0,1-6.3,7.43,27.28,27.28,0,0,1-8.79,4.42A34.69,34.69,0,0,1,414.42,122.41Z"/><path class="a" d="M496.39,95.25H478.15v25.29H455.78V54h22.28V76.54h18.24V54h22.47v66.55H496.39Z"/><path class="a" d="M566.23,122.41a38.73,38.73,0,0,1-13.58-2.16,27.22,27.22,0,0,1-9.63-5.92,23.58,23.58,0,0,1-5.73-8.88,31.8,31.8,0,0,1-1.88-11V54h22.37V92q0,4.79,2.3,7.47a9.31,9.31,0,0,0,13.07,0q2.3-2.68,2.3-7.47V54h22.28V94.4a29.84,29.84,0,0,1-2,11,24.56,24.56,0,0,1-6,8.88,28.07,28.07,0,0,1-9.82,5.92A39.54,39.54,0,0,1,566.23,122.41Z"/><path class="a" d="M636.63,99.1v21.43H614.36V54h28.58a46.07,46.07,0,0,1,10,1.08,25.39,25.39,0,0,1,8.74,3.67,19.32,19.32,0,0,1,6.2,6.86,22.17,22.17,0,0,1,2.35,10.76,22.16,22.16,0,0,1-2.3,10.53,20.21,20.21,0,0,1-6.11,7A25.27,25.27,0,0,1,653,97.88a41.9,41.9,0,0,1-10.1,1.22Zm0-27.73V82.09h4.7A8.88,8.88,0,0,0,646,80.82a4.58,4.58,0,0,0,2.12-4.28,5.19,5.19,0,0,0-.56-2.58A4.1,4.1,0,0,0,646,72.4a7.16,7.16,0,0,0-2.21-.8,13,13,0,0,0-2.44-.24Z"/><path class="b" d="M731.3,61c1.43-3.38,4-7.27,8.57-7.27a13.59,13.59,0,0,1,4.68.78V61a38.09,38.09,0,0,0-12.08,1.82c2.73,3.12,4.16,8.57,4.16,13.9,0,15.06-11.43,23.64-25.32,23.64-4.94,0-10.26-.78-13.25-1.95-3,2.21-5.45,4.42-5.45,7.92,0,3.25,2.6,5.32,11.3,5.84l18.18,1c13.25.78,20.78,4.29,20.78,16,0,17.14-18.57,20.65-32.6,20.65-25.58,0-28.83-10.26-28.83-17,0-8.7,5.46-12.86,11-16.88a8.49,8.49,0,0,1-6.49-8.05c0-5.07,3.51-8.83,7.53-11.95-6.1-3-9.87-10.13-9.87-18.18,0-15.32,11-24.54,27-24.54C719.22,53.25,726.75,55.45,731.3,61Zm-8.57,58.05-24.8-1.3c-5.45,3.9-9.61,8.18-9.61,14.29,0,5.84,3.38,11.56,22.73,11.56,17.14,0,25.06-4.93,25.06-14.67C736.11,123.89,733.25,119.61,722.73,119.09ZM710.91,58.7c-11.17,0-20.26,5.2-20.26,17.92,0,10.26,5.71,17.92,19.87,17.92,11.69,0,19.35-6.75,19.35-17.66C729.87,64.54,722.86,58.7,710.91,58.7Z"/><path class="b" d="M801.56,111.17c0,3.64.65,5.45,4,5.45a13.53,13.53,0,0,0,4-.78l.52,4.16a13.51,13.51,0,0,1-7,1.56c-5.71,0-7.79-4.29-7.53-8.31a31.65,31.65,0,0,1-22.34,8.83c-16.88,0-19.48-11.69-19.48-17.92,0-18.83,17-22.08,32.34-22.08,3.12,0,6.1.13,9,.26V76.49c0-13-3.25-17.92-15.71-17.92-11,0-15.32,4.16-16.75,12.34l-6.1-1c2.08-12.21,10.13-16.62,23.38-16.62,15.45,0,21.69,5.71,21.69,22.08ZM795.2,87.79c-3-.26-6.1-.39-10.13-.39-13.25,0-24.54,2.73-24.54,16.1,0,7.14,2.73,13.12,13.64,13.12,8.31,0,16.49-3.9,21-9.35Z"/><path class="b" d="M853.9,59.61c-8.05-1-18.57,2.47-24,8.05v52.86h-6.36v-66h5.06l.65,8.83c6.23-6.75,13.9-10.78,24.67-10.13Z"/><path class="b" d="M909.35,111.17c0,3.64.65,5.45,4,5.45a13.53,13.53,0,0,0,4-.78l.52,4.16a13.51,13.51,0,0,1-7,1.56c-5.71,0-7.79-4.29-7.53-8.31A31.65,31.65,0,0,1,881,122.08c-16.88,0-19.48-11.69-19.48-17.92,0-18.83,17-22.08,32.34-22.08,3.12,0,6.1.13,9,.26V76.49c0-13-3.25-17.92-15.71-17.92-11,0-15.32,4.16-16.75,12.34l-6.1-1c2.08-12.21,10.13-16.62,23.38-16.62,15.45,0,21.69,5.71,21.69,22.08ZM903,87.79c-3-.26-6.1-.39-10.13-.39-13.25,0-24.54,2.73-24.54,16.1,0,7.14,2.73,13.12,13.64,13.12,8.31,0,16.49-3.9,21-9.35Z"/><path class="b" d="M975.71,61c1.43-3.38,4-7.27,8.57-7.27a13.59,13.59,0,0,1,4.68.78V61a38.09,38.09,0,0,0-12.08,1.82C979.61,66,981,71.43,981,76.75c0,15.06-11.43,23.64-25.32,23.64-4.94,0-10.26-.78-13.25-1.95-3,2.21-5.45,4.42-5.45,7.92,0,3.25,2.6,5.32,11.3,5.84l18.18,1c13.25.78,20.78,4.29,20.78,16,0,17.14-18.57,20.65-32.6,20.65-25.58,0-28.83-10.26-28.83-17,0-8.7,5.46-12.86,11-16.88a8.49,8.49,0,0,1-6.49-8.05c0-5.07,3.51-8.83,7.53-11.95-6.1-3-9.87-10.13-9.87-18.18,0-15.32,11-24.54,27-24.54C963.63,53.25,971.17,55.45,975.71,61Zm-8.57,58.05-24.8-1.3c-5.45,3.9-9.61,8.18-9.61,14.29,0,5.84,3.38,11.56,22.73,11.56,17.14,0,25.06-4.93,25.06-14.67C980.52,123.89,977.66,119.61,967.14,119.09ZM955.32,58.7c-11.17,0-20.26,5.2-20.26,17.92,0,10.26,5.71,17.92,19.87,17.92,11.69,0,19.35-6.75,19.35-17.66C974.28,64.54,967.27,58.7,955.32,58.7Z"/><path class="b" d="M996.75,87.53c0-24.29,14.42-34.29,30.26-34.29,17.53,0,24.67,11.95,24.67,27a48.64,48.64,0,0,1-.65,8.57h-47.53c.52,21.82,10.26,27.14,22.86,27.14,10.39,0,15.84-4.68,18.18-13.64l6.1,1.17c-3.25,13.38-13.38,18.57-24.8,18.57C1003.12,122.08,996.75,105.84,996.75,87.53Zm48.31-4.29c.39-15.71-5.19-24.16-18.83-24.16-11,0-21.56,6.62-22.73,24.16Z"/><path class="a" d="M88.11,163.95A76.69,76.69,0,1,1,164.8,87.26,76.78,76.78,0,0,1,88.11,163.95Zm0-147a70.34,70.34,0,1,0,70.34,70.34A70.42,70.42,0,0,0,88.11,16.92Z"/><path class="a" d="M106.36,61,111,56.36a1.41,1.41,0,0,1,1-.41H127.2a1.41,1.41,0,0,1,1.41,1.41V62a1.41,1.41,0,0,1-1.41,1.41H107.36A1.41,1.41,0,0,1,106.36,61Z"/><path class="a" d="M47.61,62V57.36A1.41,1.41,0,0,1,49,55.95H64.2a1.41,1.41,0,0,1,1,.41L69.86,61a1.41,1.41,0,0,1-1,2.41H49A1.41,1.41,0,0,1,47.61,62Z"/><rect class="a" x="47.61" y="74.33" width="81" height="7.49" rx="1.41" ry="1.41"/><rect class="a" x="84.36" y="55.95" width="7.49" height="81" rx="1.41" ry="1.41" transform="translate(184.56 8.34) rotate(90)"/><rect class="a" x="84.37" y="74.32" width="7.49" height="81" rx="1.41" ry="1.41" transform="translate(202.93 26.72) rotate(90)"/></svg>