<svg xmlns="http://www.w3.org/2000/svg" viewBox="0 0 1063.87 176.43"><defs><style>.a{fill:#dd2459;}.b{fill:#fff;}</style></defs><title>MG</title><path class="a" d="M86.72,16.94A68.92,68.92,0,1,1,17.8,85.86,69,69,0,0,1,86.72,16.94m0-9.19a78.11,78.11,0,1,0,78.11,78.11A78.11,78.11,0,0,0,86.72,7.75Z"/><path class="b" d="M127.09,62.89H102.88a1,1,0,0,1-.69-1.68L109.41,54a1,1,0,0,1,.69-.29h17a1,1,0,0,1,1,1V61.9A1,1,0,0,1,127.09,62.89Z"/><path class="b" d="M70.57,62.89H46.35a1,1,0,0,1-1-1V54.68a1,1,0,0,1,1-1h17A1,1,0,0,1,64,54l7.23,7.23A1,1,0,0,1,70.57,62.89Z"/><rect class="b" x="45.37" y="72.07" width="82.7" height="9.19" rx="0.96" ry="0.96"/><rect class="b" x="45.37" y="90.45" width="82.7" height="9.19" rx="0.96" ry="0.96"/><rect class="b" x="45.37" y="108.83" width="82.7" height="9.19" rx="0.96" ry="0.96"/><path class="b" d="M231.14,81.53l1,37.6H211.31V52.58h29.27l12,35.81h.47l10.45-35.81h30.21v66.55H271.94l.66-37.41-.56-.09-12.41,37.51H243.83l-12.22-37.6Z"/><path class="b" d="M329.75,52.58h23.78l25.94,66.55H355.13l-3.48-9.78H330.5l-3.29,9.78H303.52ZM341.31,75.8l-5.45,16.45h10.81Z"/><path class="b" d="M413,121a44.94,44.94,0,0,1-7.94-.7,43.19,43.19,0,0,1-7.52-2.06,46.8,46.8,0,0,1-6.81-3.18A34.15,34.15,0,0,1,385,111L398.65,96.2a21.85,21.85,0,0,0,6.25,4.51,17.6,17.6,0,0,0,8,2,8.66,8.66,0,0,0,3.43-.66,2.43,2.43,0,0,0,1.55-2.45,2.52,2.52,0,0,0-.52-1.6,5.86,5.86,0,0,0-1.83-1.36A29.76,29.76,0,0,0,412,95.06q-2.3-.85-5.78-2a49,49,0,0,1-6.49-2.68,22.88,22.88,0,0,1-5.5-3.81,16.72,16.72,0,0,1-3.81-5.41A18.48,18.48,0,0,1,389,73.58,20.53,20.53,0,0,1,391.51,63,22.2,22.2,0,0,1,398,55.93a26.75,26.75,0,0,1,9-4,41.22,41.22,0,0,1,9.87-1.23,38.23,38.23,0,0,1,13.39,2.54,35.84,35.84,0,0,1,12,7.33L428.35,74.76a14.57,14.57,0,0,0-5.55-4.28A14.87,14.87,0,0,0,416.89,69a9.37,9.37,0,0,0-3.95.71,2.47,2.47,0,0,0,0,4.56,43.12,43.12,0,0,0,5,1.88q3.57,1.13,7.52,2.63a31.85,31.85,0,0,1,7.29,3.9,20.51,20.51,0,0,1,5.5,5.88,16.1,16.1,0,0,1,2.16,8.65,21.84,21.84,0,0,1-2.4,10.48,22.65,22.65,0,0,1-6.3,7.43,27.3,27.3,0,0,1-8.79,4.42A34.72,34.72,0,0,1,413,121Z"/><path class="b" d="M495,93.85H476.76v25.29H454.39V52.58h22.28V75.14h18.24V52.58h22.47v66.55H495Z"/><path class="b" d="M564.84,121a38.75,38.75,0,0,1-13.58-2.16,27.23,27.23,0,0,1-9.63-5.92,23.58,23.58,0,0,1-5.73-8.88A31.8,31.8,0,0,1,534,93V52.58h22.37v38q0,4.79,2.3,7.47a9.3,9.3,0,0,0,13.07,0q2.3-2.68,2.3-7.47v-38h22.28V93a29.84,29.84,0,0,1-2,11,24.57,24.57,0,0,1-6,8.88,28.09,28.09,0,0,1-9.82,5.92A39.56,39.56,0,0,1,564.84,121Z"/><path class="b" d="M635.25,97.7v21.43H613V52.58h28.58a46.07,46.07,0,0,1,10,1.08,25.41,25.41,0,0,1,8.74,3.67,19.33,19.33,0,0,1,6.2,6.86A22.17,22.17,0,0,1,668.8,75a22.16,22.16,0,0,1-2.3,10.53,20.2,20.2,0,0,1-6.11,7,25.25,25.25,0,0,1-8.74,3.95,41.85,41.85,0,0,1-10.1,1.22Zm0-27.73V80.69h4.7a8.88,8.88,0,0,0,4.65-1.27,4.59,4.59,0,0,0,2.12-4.28,5.19,5.19,0,0,0-.56-2.58A4.09,4.09,0,0,0,644.6,71a7.13,7.13,0,0,0-2.21-.8,13,13,0,0,0-2.44-.24Z"/><path class="a" d="M729.39,58.47c1.69-4,4.94-7.92,9.61-7.92a16.23,16.23,0,0,1,5.58.91v7.79a45.9,45.9,0,0,0-13.12,1.69c3,3.38,4.68,8.83,4.68,14.15,0,15.06-11.56,23.77-26.1,23.77A37.54,37.54,0,0,1,698,97c-2.21,1.95-5.06,4.41-5.06,7.53s1.56,4.94,9.61,5.32l18.44,1c13.51.78,21.17,4.29,21.17,17.14,0,16.23-18.05,20.39-33.64,20.39-24.93,0-29-9.48-29-16.75,0-8.18,6.1-13.12,10.78-16.36-3.9-1.17-6.49-4-6.49-8.44,0-5.32,3.9-8.83,8.18-12.21-4.55-2.34-7.92-7-9.35-12.86a23.11,23.11,0,0,1-.78-6.1c0-14.8,11-24.29,27.53-24.29C717.83,51.46,724.85,53.28,729.39,58.47Zm-8.7,60.26-23.64-1.3c-4.93,3.51-8.57,7.4-8.57,12.73,0,5.71,3.9,10.78,21.43,10.78,15.71,0,23.12-4.8,23.12-13.12C733,122.88,730.56,119.25,720.69,118.73ZM709.78,58.6C699.39,58.6,691,63.4,691,75c0,9.61,5.45,16.49,18.57,16.49,10.91,0,17.92-6.23,17.92-16.23C727.44,63.92,721,58.6,709.78,58.6Z"/><path class="a" d="M800.82,108.47c0,3.64.65,5.2,4,5.2a13.54,13.54,0,0,0,4-.78l.52,5.58a16.53,16.53,0,0,1-7.92,1.82c-6.1,0-8.31-3.77-8.57-8.31-4.93,5.2-12.73,8.7-22.08,8.7-16.88,0-19.61-11.56-19.61-17.92,0-18.83,17.14-22.34,32.21-22.34,3.77,0,6.1.13,8.7.26V74.05c0-10.13-2.86-15.58-14.42-15.58-10.52,0-14.16,4.16-15.58,11.95L753.94,69c2.08-12.34,10.13-17.53,24.29-17.53,15.84,0,22.6,6.23,22.6,22.73Zm-8.57-20.78a64.37,64.37,0,0,0-8.18-.39c-9.09,0-23.77.65-23.77,14.15,0,6.49,2.34,12.21,12.6,12.21,7.66,0,15.2-4.29,19.35-9.09Z"/><path class="a" d="M854.59,60.55c-8.18-1.43-18.44,2.34-23.9,7.66v50.91H822V52.76h7.14l.78,9.22c6.36-8.57,13.51-10.65,22.6-10.52h2.08Z"/><path class="a" d="M910.17,108.47c0,3.64.65,5.2,4,5.2a13.54,13.54,0,0,0,4-.78l.52,5.58a16.53,16.53,0,0,1-7.92,1.82c-6.1,0-8.31-3.77-8.57-8.31-4.93,5.2-12.73,8.7-22.08,8.7-16.88,0-19.61-11.56-19.61-17.92,0-18.83,17.14-22.34,32.21-22.34,3.77,0,6.1.13,8.7.26V74.05c0-10.13-2.86-15.58-14.42-15.58-10.52,0-14.16,4.16-15.58,11.95L863.29,69c2.08-12.34,10.13-17.53,24.29-17.53,15.84,0,22.6,6.23,22.6,22.73ZM901.6,87.69a64.37,64.37,0,0,0-8.18-.39c-9.09,0-23.77.65-23.77,14.15,0,6.49,2.34,12.21,12.6,12.21,7.66,0,15.2-4.29,19.35-9.09Z"/><path class="a" d="M975.62,58.47c1.69-4,4.94-7.92,9.61-7.92a16.23,16.23,0,0,1,5.58.91v7.79a45.9,45.9,0,0,0-13.12,1.69c3,3.38,4.68,8.83,4.68,14.15,0,15.06-11.56,23.77-26.1,23.77A37.54,37.54,0,0,1,944.19,97c-2.21,1.95-5.06,4.41-5.06,7.53s1.56,4.94,9.61,5.32l18.44,1c13.51.78,21.17,4.29,21.17,17.14,0,16.23-18.05,20.39-33.64,20.39-24.93,0-29-9.48-29-16.75,0-8.18,6.1-13.12,10.78-16.36-3.9-1.17-6.49-4-6.49-8.44,0-5.32,3.9-8.83,8.18-12.21-4.55-2.34-7.92-7-9.35-12.86a23.11,23.11,0,0,1-.78-6.1c0-14.8,11-24.29,27.53-24.29C964.06,51.46,971.08,53.28,975.62,58.47Zm-8.7,60.26-23.64-1.3c-4.93,3.51-8.57,7.4-8.57,12.73,0,5.71,3.9,10.78,21.43,10.78,15.71,0,23.12-4.8,23.12-13.12C979.26,122.88,976.79,119.25,966.92,118.73ZM956,58.6c-10.39,0-18.83,4.8-18.83,16.36,0,9.61,5.45,16.49,18.57,16.49,10.91,0,17.92-6.23,17.92-16.23C973.67,63.92,967.18,58.6,956,58.6Z"/><path class="a" d="M996.79,86c0-24.29,14-34.54,30.78-34.54,18.18,0,25.58,12.34,25.58,28.18-.13,2.6-.26,5.32-.65,8.05H1006c.52,19.87,9.74,25.2,21.3,25.2,10.39,0,14.68-4.29,16.75-12.6l8.18,1.56c-2.86,13.12-13.38,18.83-25.58,18.83C1003.54,120.68,996.79,104.31,996.79,86Zm47.27-5.32C1044.32,67,1039.13,59,1026.79,59c-10.13,0-20,6.23-20.65,21.69Z"/></svg>