<svg xmlns="http://www.w3.org/2000/svg" viewBox="0 0 174.42 174.42"><defs><style>.a{fill:#231f20;}</style></defs><title>MG</title><path class="a" d="M88.11,164A76.69,76.69,0,1,1,164.8,87.26,76.78,76.78,0,0,1,88.11,164Zm0-147a70.34,70.34,0,1,0,70.34,70.34A70.42,70.42,0,0,0,88.11,16.92Z"/><path class="a" d="M106.36,61,111,56.36a1.41,1.41,0,0,1,1-.41H127.2a1.41,1.41,0,0,1,1.41,1.41V62a1.41,1.41,0,0,1-1.41,1.41H107.36A1.41,1.41,0,0,1,106.36,61Z"/><path class="a" d="M47.61,62V57.36A1.41,1.41,0,0,1,49,55.95H64.2a1.41,1.41,0,0,1,1,.41L69.86,61a1.41,1.41,0,0,1-1,2.41H49A1.41,1.41,0,0,1,47.61,62Z"/><rect class="a" x="47.61" y="74.33" width="81" height="7.49" rx="1.41" ry="1.41"/><rect class="a" x="84.36" y="55.95" width="7.49" height="81" rx="1.41" ry="1.41" transform="translate(184.56 8.34) rotate(90)"/><rect class="a" x="84.37" y="74.33" width="7.49" height="81" rx="1.41" ry="1.41" transform="translate(202.94 26.72) rotate(90)"/></svg>