<svg xmlns="http://www.w3.org/2000/svg" viewBox="0 0 185.19 185.19"><defs><style>.a{fill:#fff;}</style></defs><title>MG</title><path class="a" d="M88.1,18.33A68.92,68.92,0,1,1,19.18,87.25,69,69,0,0,1,88.1,18.33m0-9.19a78.11,78.11,0,1,0,78.11,78.11A78.11,78.11,0,0,0,88.1,9.14Z"/><path class="a" d="M128.47,64.28H104.26a1,1,0,0,1-.69-1.68l7.23-7.23a1,1,0,0,1,.69-.29h17a1,1,0,0,1,1,1V63.3A1,1,0,0,1,128.47,64.28Z"/><path class="a" d="M71.95,64.28H47.73a1,1,0,0,1-1-1V56.07a1,1,0,0,1,1-1h17a1,1,0,0,1,.69.29l7.23,7.23A1,1,0,0,1,71.95,64.28Z"/><rect class="a" x="46.75" y="73.47" width="82.7" height="9.19" rx="0.96" ry="0.96"/><rect class="a" x="46.75" y="91.85" width="82.7" height="9.19" rx="0.96" ry="0.96"/><rect class="a" x="46.75" y="110.22" width="82.7" height="9.19" rx="0.96" ry="0.96"/></svg>