<svg xmlns="http://www.w3.org/2000/svg" viewBox="0 0 176.43 176.43"><defs><style>.a{fill:#dd2459;}.b{fill:#fff;}</style></defs><title>MG</title><path class="a" d="M86.72,16.94A68.92,68.92,0,1,1,17.8,85.86,69,69,0,0,1,86.72,16.94m0-9.19a78.11,78.11,0,1,0,78.11,78.11A78.11,78.11,0,0,0,86.72,7.75Z"/><path class="b" d="M127.09,62.89H102.88a1,1,0,0,1-.69-1.68L109.41,54a1,1,0,0,1,.69-.29h17a1,1,0,0,1,1,1V61.9A1,1,0,0,1,127.09,62.89Z"/><path class="b" d="M70.57,62.89H46.35a1,1,0,0,1-1-1V54.68a1,1,0,0,1,1-1h17A1,1,0,0,1,64,54l7.23,7.23A1,1,0,0,1,70.57,62.89Z"/><rect class="b" x="45.37" y="72.07" width="82.7" height="9.19" rx="0.96" ry="0.96"/><rect class="b" x="45.37" y="90.45" width="82.7" height="9.19" rx="0.96" ry="0.96"/><rect class="b" x="45.37" y="108.83" width="82.7" height="9.19" rx="0.96" ry="0.96"/></svg>