<svg xmlns="http://www.w3.org/2000/svg" viewBox="0 0 174.42 174.42"><defs><style>.a{fill:#dd2459;}.b{fill:#231f20;}</style></defs><title>MG</title><path class="a" d="M88.11,164.52a77.26,77.26,0,1,1,77.26-77.26A77.34,77.34,0,0,1,88.11,164.52Zm0-147a69.77,69.77,0,1,0,69.77,69.77A69.85,69.85,0,0,0,88.11,17.49Z"/><path class="b" d="M106.36,61,111,56.36a1.41,1.41,0,0,1,1-.41H127.2a1.41,1.41,0,0,1,1.41,1.41V62a1.41,1.41,0,0,1-1.41,1.41H107.36A1.41,1.41,0,0,1,106.36,61Z"/><path class="b" d="M47.61,62V57.36A1.41,1.41,0,0,1,49,55.95H64.2a1.41,1.41,0,0,1,1,.41L69.86,61a1.41,1.41,0,0,1-1,2.41H49A1.41,1.41,0,0,1,47.61,62Z"/><rect class="b" x="47.61" y="74.33" width="81" height="7.49" rx="1.41" ry="1.41"/><rect class="b" x="84.36" y="55.95" width="7.49" height="81" rx="1.41" ry="1.41" transform="translate(184.56 8.34) rotate(90)"/><rect class="b" x="84.37" y="74.33" width="7.49" height="81" rx="1.41" ry="1.41" transform="translate(202.94 26.72) rotate(90)"/></svg>