<svg xmlns="http://www.w3.org/2000/svg" viewBox="0 0 450.54 274.75"><defs><style>.a{fill:#fff;}.b{fill:#fdfefe;}</style></defs><title>MG</title><path class="a" d="M223.63,18.34a68.92,68.92,0,1,1-68.92,68.92,69,69,0,0,1,68.92-68.92m0-9.19a78.11,78.11,0,1,0,78.11,78.11A78.11,78.11,0,0,0,223.63,9.15Z"/><path class="a" d="M264,64.28H239.78a1,1,0,0,1-.69-1.68l7.23-7.23a1,1,0,0,1,.69-.29h17a1,1,0,0,1,1,1V63.3A1,1,0,0,1,264,64.28Z"/><path class="a" d="M207.47,64.28H183.26a1,1,0,0,1-1-1V56.08a1,1,0,0,1,1-1h17a1,1,0,0,1,.69.29l7.23,7.23A1,1,0,0,1,207.47,64.28Z"/><rect class="a" x="182.28" y="73.47" width="82.7" height="9.19" rx="0.96" ry="0.96"/><rect class="a" x="182.28" y="91.85" width="82.7" height="9.19" rx="0.96" ry="0.96"/><rect class="a" x="182.28" y="110.23" width="82.7" height="9.19" rx="0.96" ry="0.96"/><path class="a" d="M23.09,227.52l.52,18.8H13.17V213H27.8l6,17.91h.24L39.28,213h15.1v33.28H43.48l.33-18.71-.28,0-6.2,18.75h-7.9l-6.11-18.8Z"/><path class="a" d="M72.39,213H84.28l13,33.28H85.08l-1.74-4.89H72.76l-1.65,4.89H59.28Zm5.78,11.61-2.73,8.23h5.4Z"/><path class="a" d="M114,247.26a22.47,22.47,0,0,1-4-.35,21.6,21.6,0,0,1-3.76-1,23.4,23.4,0,0,1-3.41-1.59,17.07,17.07,0,0,1-2.87-2l6.81-7.4a10.92,10.92,0,0,0,3.13,2.26,8.8,8.8,0,0,0,4,1,4.33,4.33,0,0,0,1.72-.33,1.22,1.22,0,0,0,.78-1.22,1.26,1.26,0,0,0-.26-.8,2.93,2.93,0,0,0-.92-.68,14.88,14.88,0,0,0-1.81-.78q-1.15-.42-2.89-1a24.5,24.5,0,0,1-3.24-1.34,11.44,11.44,0,0,1-2.75-1.91,8.36,8.36,0,0,1-1.9-2.71,9.24,9.24,0,0,1-.71-3.79,10.26,10.26,0,0,1,1.27-5.27,11.1,11.1,0,0,1,3.27-3.56,13.38,13.38,0,0,1,4.49-2,20.61,20.61,0,0,1,4.94-.61,19.12,19.12,0,0,1,6.7,1.27,17.92,17.92,0,0,1,6,3.67l-7,7.1a7.29,7.29,0,0,0-2.77-2.14,7.43,7.43,0,0,0-3-.73,4.69,4.69,0,0,0-2,.35,1.23,1.23,0,0,0,0,2.28,21.56,21.56,0,0,0,2.51.94q1.79.56,3.76,1.32a15.92,15.92,0,0,1,3.64,2,10.25,10.25,0,0,1,2.75,2.94,8,8,0,0,1,1.08,4.32,10.92,10.92,0,0,1-1.2,5.24,11.33,11.33,0,0,1-3.15,3.71,13.65,13.65,0,0,1-4.39,2.21A17.36,17.36,0,0,1,114,247.26Z"/><path class="a" d="M155,233.68h-9.12v12.64H134.71V213h11.14v11.28H155V213H166.2v33.28H155Z"/><path class="a" d="M189.93,247.26a19.38,19.38,0,0,1-6.79-1.08,13.61,13.61,0,0,1-4.82-3,11.79,11.79,0,0,1-2.87-4.44,15.9,15.9,0,0,1-.94-5.52V213H185.7v19a5.55,5.55,0,0,0,1.15,3.74,4.65,4.65,0,0,0,6.53,0,5.55,5.55,0,0,0,1.15-3.74V213h11.14v20.21a14.92,14.92,0,0,1-1,5.52,12.29,12.29,0,0,1-3,4.44,14,14,0,0,1-4.91,3A19.78,19.78,0,0,1,189.93,247.26Z"/><path class="a" d="M225.14,235.61v10.72H214V213h14.29a23,23,0,0,1,5,.54,12.7,12.7,0,0,1,4.37,1.83,9.66,9.66,0,0,1,3.1,3.43,12.76,12.76,0,0,1,0,10.65,10.1,10.1,0,0,1-3.06,3.52,12.63,12.63,0,0,1-4.37,2,20.93,20.93,0,0,1-5.05.61Zm0-13.86v5.36h2.35a4.44,4.44,0,0,0,2.33-.63,2.29,2.29,0,0,0,1.06-2.14,2.59,2.59,0,0,0-.28-1.29,2,2,0,0,0-.78-.78,3.57,3.57,0,0,0-1.1-.4,6.48,6.48,0,0,0-1.22-.12Z"/><path class="b" d="M272.21,216c.84-2,2.47-4,4.81-4a8.12,8.12,0,0,1,2.79.45v3.9a22.94,22.94,0,0,0-6.56.84,11,11,0,0,1,2.34,7.08c0,7.53-5.78,11.88-13.05,11.88a18.76,18.76,0,0,1-6-.91c-1.1,1-2.53,2.21-2.53,3.77s.78,2.47,4.81,2.66l9.22.52c6.75.39,10.58,2.14,10.58,8.57,0,8.12-9,10.19-16.82,10.19-12.47,0-14.48-4.74-14.48-8.38,0-4.09,3.05-6.56,5.39-8.18a4.2,4.2,0,0,1-3.25-4.22c0-2.66,1.95-4.42,4.09-6.1a9.6,9.6,0,0,1-4.68-6.43,11.55,11.55,0,0,1-.39-3.05c0-7.4,5.52-12.14,13.77-12.14C266.43,212.48,269.94,213.39,272.21,216Zm-4.35,30.13L256,245.47c-2.47,1.75-4.29,3.7-4.29,6.36,0,2.86,1.95,5.39,10.71,5.39,7.86,0,11.56-2.4,11.56-6.56C274,248.2,272.79,246.38,267.86,246.12Zm-5.45-30.06c-5.19,0-9.42,2.4-9.42,8.18,0,4.81,2.73,8.25,9.29,8.25,5.45,0,9-3.12,9-8.12C271.23,218.72,268,216.06,262.4,216.06Z"/><path class="b" d="M307.92,241c0,1.82.33,2.6,2,2.6a6.77,6.77,0,0,0,2-.39l.26,2.79a8.26,8.26,0,0,1-4,.91c-3.05,0-4.16-1.88-4.29-4.16a15.09,15.09,0,0,1-11,4.35c-8.44,0-9.81-5.78-9.81-9,0-9.42,8.57-11.17,16.1-11.17,1.88,0,3.05.06,4.35.13v-3.31c0-5.06-1.43-7.79-7.21-7.79-5.26,0-7.08,2.08-7.79,6l-4.09-.71c1-6.17,5.06-8.77,12.14-8.77,7.92,0,11.3,3.12,11.3,11.36Zm-4.29-10.39a32.17,32.17,0,0,0-4.09-.19c-4.55,0-11.88.32-11.88,7.08,0,3.25,1.17,6.1,6.3,6.1a13.57,13.57,0,0,0,9.68-4.55Z"/><path class="b" d="M334.81,217a15.13,15.13,0,0,0-11.95,3.83v25.45h-4.35V213.13h3.57l.39,4.61c3.18-4.29,6.75-5.32,11.3-5.26h1Z"/><path class="b" d="M362.6,241c0,1.82.33,2.6,2,2.6a6.77,6.77,0,0,0,2-.39l.26,2.79a8.26,8.26,0,0,1-4,.91c-3.05,0-4.16-1.88-4.29-4.16a15.09,15.09,0,0,1-11,4.35c-8.44,0-9.81-5.78-9.81-9,0-9.42,8.57-11.17,16.1-11.17,1.88,0,3.05.06,4.35.13v-3.31c0-5.06-1.43-7.79-7.21-7.79-5.26,0-7.08,2.08-7.79,6l-4.09-.71c1-6.17,5.06-8.77,12.14-8.77,7.92,0,11.3,3.12,11.3,11.36Zm-4.29-10.39a32.17,32.17,0,0,0-4.09-.19c-4.55,0-11.88.32-11.88,7.08,0,3.25,1.17,6.1,6.3,6.1a13.57,13.57,0,0,0,9.68-4.55Z"/><path class="b" d="M395.32,216c.84-2,2.47-4,4.8-4a8.13,8.13,0,0,1,2.79.45v3.9a22.93,22.93,0,0,0-6.56.84,11,11,0,0,1,2.34,7.08c0,7.53-5.78,11.88-13.05,11.88a18.75,18.75,0,0,1-6-.91c-1.1,1-2.53,2.21-2.53,3.77s.78,2.47,4.8,2.66l9.22.52c6.75.39,10.58,2.14,10.58,8.57,0,8.12-9,10.19-16.82,10.19-12.47,0-14.48-4.74-14.48-8.38,0-4.09,3.05-6.56,5.39-8.18a4.2,4.2,0,0,1-3.25-4.22c0-2.66,1.95-4.42,4.09-6.1a9.6,9.6,0,0,1-4.67-6.43,11.55,11.55,0,0,1-.39-3.05c0-7.4,5.52-12.14,13.77-12.14C389.54,212.48,393.05,213.39,395.32,216ZM391,246.12l-11.82-.65c-2.47,1.75-4.29,3.7-4.29,6.36,0,2.86,1.95,5.39,10.71,5.39,7.86,0,11.56-2.4,11.56-6.56C397.14,248.2,395.91,246.38,391,246.12Zm-5.45-30.06c-5.2,0-9.42,2.4-9.42,8.18,0,4.81,2.73,8.25,9.29,8.25,5.45,0,9-3.12,9-8.12C394.35,218.72,391.1,216.06,385.52,216.06Z"/><path class="b" d="M405.91,229.76c0-12.14,7-17.27,15.39-17.27,9.09,0,12.79,6.17,12.79,14.09-.07,1.3-.13,2.66-.33,4H410.52c.26,9.93,4.87,12.6,10.65,12.6,5.19,0,7.34-2.14,8.38-6.3l4.09.78c-1.43,6.56-6.69,9.42-12.79,9.42C409.29,247.09,405.91,238.91,405.91,229.76Zm23.64-2.66c.13-6.82-2.47-10.84-8.64-10.84-5.06,0-10,3.12-10.32,10.84Z"/></svg>