<svg xmlns="http://www.w3.org/2000/svg" viewBox="0 0 439.22 261.74"><defs><style>.a{fill:#dd2459;}.b{fill:#fff;}</style></defs><title>MG</title><path class="a" d="M219.3,16.94a68.92,68.92,0,1,1-68.92,68.92A69,69,0,0,1,219.3,16.94m0-9.19a78.11,78.11,0,1,0,78.11,78.11A78.11,78.11,0,0,0,219.3,7.75Z"/><path class="b" d="M259.67,62.89H235.46a1,1,0,0,1-.69-1.68L242,54a1,1,0,0,1,.69-.29h17a1,1,0,0,1,1,1V61.9A1,1,0,0,1,259.67,62.89Z"/><path class="b" d="M203.15,62.89H178.93a1,1,0,0,1-1-1V54.68a1,1,0,0,1,1-1h17a1,1,0,0,1,.69.29l7.23,7.23A1,1,0,0,1,203.15,62.89Z"/><rect class="b" x="177.95" y="72.07" width="82.7" height="9.19" rx="0.96" ry="0.96"/><rect class="b" x="177.95" y="90.45" width="82.7" height="9.19" rx="0.96" ry="0.96"/><rect class="b" x="177.95" y="108.83" width="82.7" height="9.19" rx="0.96" ry="0.96"/><path class="b" d="M18.76,224l.52,18.8H8.84V209.5H23.47l6,17.91h.24L35,209.5h15.1v33.28H39.16l.33-18.71-.28,0L33,242.77H25.1L19,224Z"/><path class="b" d="M68.06,209.5H80l13,33.28H80.75L79,237.89H68.44l-1.65,4.89H54.95Zm5.78,11.61-2.73,8.23h5.4Z"/><path class="b" d="M109.7,243.71a22.47,22.47,0,0,1-4-.35,21.6,21.6,0,0,1-3.76-1,23.4,23.4,0,0,1-3.41-1.59,17.07,17.07,0,0,1-2.87-2l6.81-7.4a10.92,10.92,0,0,0,3.13,2.26,8.8,8.8,0,0,0,4,1,4.33,4.33,0,0,0,1.72-.33,1.22,1.22,0,0,0,.78-1.22,1.26,1.26,0,0,0-.26-.8,2.93,2.93,0,0,0-.92-.68,14.88,14.88,0,0,0-1.81-.78q-1.15-.42-2.89-1A24.5,24.5,0,0,1,103,228.4a11.44,11.44,0,0,1-2.75-1.91,8.36,8.36,0,0,1-1.9-2.71,9.24,9.24,0,0,1-.71-3.79,10.26,10.26,0,0,1,1.27-5.27,11.1,11.1,0,0,1,3.27-3.56,13.38,13.38,0,0,1,4.49-2,20.61,20.61,0,0,1,4.94-.61,19.12,19.12,0,0,1,6.7,1.27,17.92,17.92,0,0,1,6,3.67l-7,7.1a7.29,7.29,0,0,0-2.77-2.14,7.43,7.43,0,0,0-3-.73,4.69,4.69,0,0,0-2,.35,1.23,1.23,0,0,0,0,2.28,21.56,21.56,0,0,0,2.51.94q1.79.56,3.76,1.32a15.92,15.92,0,0,1,3.64,2,10.25,10.25,0,0,1,2.75,2.94,8,8,0,0,1,1.08,4.32,10.92,10.92,0,0,1-1.2,5.24,11.33,11.33,0,0,1-3.15,3.71,13.65,13.65,0,0,1-4.39,2.21A17.36,17.36,0,0,1,109.7,243.71Z"/><path class="b" d="M150.69,230.13h-9.12v12.64H130.38V209.5h11.14v11.28h9.12V209.5h11.23v33.28H150.69Z"/><path class="b" d="M185.61,243.71a19.38,19.38,0,0,1-6.79-1.08,13.61,13.61,0,0,1-4.82-3,11.79,11.79,0,0,1-2.87-4.44,15.9,15.9,0,0,1-.94-5.52V209.5h11.19v19a5.55,5.55,0,0,0,1.15,3.74,4.65,4.65,0,0,0,6.53,0,5.55,5.55,0,0,0,1.15-3.74v-19h11.14v20.21a14.92,14.92,0,0,1-1,5.52,12.29,12.29,0,0,1-3,4.44,14,14,0,0,1-4.91,3A19.78,19.78,0,0,1,185.61,243.71Z"/><path class="b" d="M220.81,232.06v10.72H209.67V209.5H224a23,23,0,0,1,5,.54,12.7,12.7,0,0,1,4.37,1.83,9.66,9.66,0,0,1,3.1,3.43,12.76,12.76,0,0,1,0,10.65,10.1,10.1,0,0,1-3.06,3.52,12.63,12.63,0,0,1-4.37,2,20.93,20.93,0,0,1-5.05.61Zm0-13.86v5.36h2.35a4.44,4.44,0,0,0,2.33-.63,2.29,2.29,0,0,0,1.06-2.14,2.59,2.59,0,0,0-.28-1.29,2,2,0,0,0-.78-.78,3.57,3.57,0,0,0-1.1-.4,6.48,6.48,0,0,0-1.22-.12Z"/><path class="a" d="M267.88,212.44c.84-2,2.47-4,4.81-4a8.11,8.11,0,0,1,2.79.46v3.9a23,23,0,0,0-6.56.84,11,11,0,0,1,2.34,7.08c0,7.53-5.78,11.88-13.05,11.88a18.77,18.77,0,0,1-6-.91c-1.1,1-2.53,2.21-2.53,3.77s.78,2.47,4.81,2.66l9.22.52c6.75.39,10.58,2.14,10.58,8.57,0,8.12-9,10.19-16.82,10.19-12.47,0-14.48-4.74-14.48-8.38,0-4.09,3.05-6.56,5.39-8.18a4.2,4.2,0,0,1-3.25-4.22c0-2.66,1.95-4.42,4.09-6.1a9.6,9.6,0,0,1-4.68-6.43,11.55,11.55,0,0,1-.39-3.05c0-7.4,5.52-12.14,13.77-12.14C262.1,208.94,265.61,209.85,267.88,212.44Zm-4.35,30.13-11.82-.65c-2.47,1.75-4.29,3.7-4.29,6.36,0,2.86,1.95,5.39,10.71,5.39,7.86,0,11.56-2.4,11.56-6.56C269.7,244.65,268.47,242.83,263.53,242.57Zm-5.45-30.06c-5.19,0-9.42,2.4-9.42,8.18,0,4.8,2.73,8.25,9.29,8.25,5.45,0,9-3.12,9-8.12C266.91,215.17,263.66,212.51,258.08,212.51Z"/><path class="a" d="M303.6,237.44c0,1.82.32,2.6,2,2.6a6.77,6.77,0,0,0,2-.39l.26,2.79a8.26,8.26,0,0,1-4,.91c-3.05,0-4.16-1.88-4.29-4.16a15.08,15.08,0,0,1-11,4.35c-8.44,0-9.81-5.78-9.81-9,0-9.42,8.57-11.17,16.1-11.17,1.88,0,3.05.06,4.35.13v-3.31c0-5.06-1.43-7.79-7.21-7.79-5.26,0-7.08,2.08-7.79,6l-4.09-.71c1-6.17,5.06-8.77,12.14-8.77,7.92,0,11.3,3.12,11.3,11.36Zm-4.29-10.39a32.19,32.19,0,0,0-4.09-.19c-4.55,0-11.88.32-11.88,7.08,0,3.25,1.17,6.1,6.3,6.1a13.57,13.57,0,0,0,9.68-4.55Z"/><path class="a" d="M330.48,213.48a15.13,15.13,0,0,0-11.95,3.83v25.45h-4.35V209.59h3.57l.39,4.61c3.18-4.29,6.75-5.33,11.3-5.26h1Z"/><path class="a" d="M358.27,237.44c0,1.82.32,2.6,2,2.6a6.77,6.77,0,0,0,2-.39l.26,2.79a8.26,8.26,0,0,1-4,.91c-3.05,0-4.16-1.88-4.29-4.16a15.08,15.08,0,0,1-11,4.35c-8.44,0-9.81-5.78-9.81-9,0-9.42,8.57-11.17,16.1-11.17,1.88,0,3.05.06,4.35.13v-3.31c0-5.06-1.43-7.79-7.21-7.79-5.26,0-7.08,2.08-7.79,6l-4.09-.71c1-6.17,5.06-8.77,12.14-8.77,7.92,0,11.3,3.12,11.3,11.36ZM354,227.05a32.19,32.19,0,0,0-4.09-.19c-4.55,0-11.88.32-11.88,7.08,0,3.25,1.17,6.1,6.3,6.1a13.57,13.57,0,0,0,9.68-4.55Z"/><path class="a" d="M391,212.44c.84-2,2.47-4,4.81-4a8.11,8.11,0,0,1,2.79.46v3.9a23,23,0,0,0-6.56.84,11,11,0,0,1,2.34,7.08c0,7.53-5.78,11.88-13.05,11.88a18.77,18.77,0,0,1-6-.91c-1.1,1-2.53,2.21-2.53,3.77s.78,2.47,4.81,2.66l9.22.52c6.75.39,10.58,2.14,10.58,8.57,0,8.12-9,10.19-16.82,10.19-12.47,0-14.48-4.74-14.48-8.38,0-4.09,3.05-6.56,5.39-8.18a4.2,4.2,0,0,1-3.25-4.22c0-2.66,1.95-4.42,4.09-6.1a9.6,9.6,0,0,1-4.68-6.43,11.55,11.55,0,0,1-.39-3.05c0-7.4,5.52-12.14,13.77-12.14C385.22,208.94,388.72,209.85,391,212.44Zm-4.35,30.13-11.82-.65c-2.47,1.75-4.29,3.7-4.29,6.36,0,2.86,1.95,5.39,10.71,5.39,7.86,0,11.56-2.4,11.56-6.56C392.82,244.65,391.58,242.83,386.65,242.57Zm-5.45-30.06c-5.19,0-9.42,2.4-9.42,8.18,0,4.8,2.73,8.25,9.29,8.25,5.45,0,9-3.12,9-8.12C390,215.17,386.78,212.51,381.19,212.51Z"/><path class="a" d="M401.58,226.21c0-12.14,7-17.27,15.39-17.27,9.09,0,12.79,6.17,12.79,14.09-.06,1.3-.13,2.66-.32,4H406.19c.26,9.93,4.87,12.6,10.65,12.6,5.19,0,7.34-2.14,8.38-6.3l4.09.78c-1.43,6.56-6.69,9.42-12.79,9.42C405,243.55,401.58,235.36,401.58,226.21Zm23.64-2.66c.13-6.82-2.47-10.84-8.64-10.84-5.06,0-10,3.12-10.32,10.84Z"/></svg>