<svg xmlns="http://www.w3.org/2000/svg" viewBox="0 0 1063.87 174.41"><defs><style>.a{fill:#231f20;}.b{fill:#dd2459;}</style></defs><title>MG</title><path class="a" d="M232.53,82.93l1,37.6H212.7V54H242l12,35.81h.47L264.93,54h30.21v66.55H273.33L274,83.12l-.56-.09L261,120.53H245.22L233,82.93Z"/><path class="a" d="M331.14,54h23.78l25.94,66.55H356.52L353,110.76H331.89l-3.29,9.78H304.91ZM342.7,77.2l-5.45,16.45h10.81Z"/><path class="a" d="M414.42,122.41a44.94,44.94,0,0,1-7.94-.7,43.28,43.28,0,0,1-7.52-2.06,47,47,0,0,1-6.81-3.18,34.26,34.26,0,0,1-5.73-4.07L400,97.6a21.86,21.86,0,0,0,6.25,4.51,17.59,17.59,0,0,0,8,2,8.66,8.66,0,0,0,3.43-.66,2.43,2.43,0,0,0,1.55-2.45,2.52,2.52,0,0,0-.52-1.6A5.88,5.88,0,0,0,417,98a29.76,29.76,0,0,0-3.62-1.55q-2.3-.85-5.78-2a49,49,0,0,1-6.49-2.68,22.88,22.88,0,0,1-5.5-3.81,16.73,16.73,0,0,1-3.81-5.41A18.49,18.49,0,0,1,390.36,75a20.53,20.53,0,0,1,2.54-10.55,22.2,22.2,0,0,1,6.53-7.11,26.74,26.74,0,0,1,9-4,41.22,41.22,0,0,1,9.87-1.22,38.21,38.21,0,0,1,13.39,2.54,35.81,35.81,0,0,1,12,7.33L429.74,76.16a14.56,14.56,0,0,0-5.55-4.28,14.87,14.87,0,0,0-5.92-1.46,9.36,9.36,0,0,0-3.95.71,2.38,2.38,0,0,0-1.5,2.3,2.41,2.41,0,0,0,1.55,2.26,42.94,42.94,0,0,0,5,1.88q3.57,1.13,7.52,2.63a31.92,31.92,0,0,1,7.29,3.9,20.52,20.52,0,0,1,5.5,5.88,16.1,16.1,0,0,1,2.16,8.65,21.84,21.84,0,0,1-2.4,10.48,22.64,22.64,0,0,1-6.3,7.43,27.28,27.28,0,0,1-8.79,4.42A34.69,34.69,0,0,1,414.42,122.41Z"/><path class="a" d="M496.39,95.25H478.15v25.29H455.78V54h22.28V76.54h18.24V54h22.47v66.55H496.39Z"/><path class="a" d="M566.23,122.41a38.73,38.73,0,0,1-13.58-2.16,27.22,27.22,0,0,1-9.63-5.92,23.58,23.58,0,0,1-5.73-8.88,31.8,31.8,0,0,1-1.88-11V54h22.37V92q0,4.79,2.3,7.47a9.31,9.31,0,0,0,13.07,0q2.3-2.68,2.3-7.47V54h22.28V94.4a29.84,29.84,0,0,1-2,11,24.56,24.56,0,0,1-6,8.88,28.07,28.07,0,0,1-9.82,5.92A39.54,39.54,0,0,1,566.23,122.41Z"/><path class="a" d="M636.63,99.1v21.43H614.36V54h28.58a46.07,46.07,0,0,1,10,1.08,25.39,25.39,0,0,1,8.74,3.67,19.32,19.32,0,0,1,6.2,6.86,22.17,22.17,0,0,1,2.35,10.76,22.16,22.16,0,0,1-2.3,10.53,20.21,20.21,0,0,1-6.11,7A25.27,25.27,0,0,1,653,97.88a41.9,41.9,0,0,1-10.1,1.22Zm0-27.73V82.09h4.7A8.88,8.88,0,0,0,646,80.82a4.58,4.58,0,0,0,2.12-4.28,5.19,5.19,0,0,0-.56-2.58A4.1,4.1,0,0,0,646,72.4a7.16,7.16,0,0,0-2.21-.8,13,13,0,0,0-2.44-.24Z"/><path class="b" d="M730.78,59.87c1.69-4,4.94-7.92,9.61-7.92a16.25,16.25,0,0,1,5.58.91v7.79a45.87,45.87,0,0,0-13.12,1.69c3,3.38,4.68,8.83,4.68,14.16,0,15.06-11.56,23.77-26.1,23.77a37.51,37.51,0,0,1-12.08-1.82c-2.21,1.95-5.06,4.42-5.06,7.53s1.56,4.93,9.61,5.32l18.44,1c13.51.78,21.17,4.29,21.17,17.14,0,16.23-18.05,20.39-33.64,20.39-24.93,0-29-9.48-29-16.75,0-8.18,6.11-13.12,10.78-16.36-3.89-1.17-6.49-4-6.49-8.44,0-5.32,3.89-8.83,8.18-12.21-4.55-2.34-7.92-7-9.35-12.86a23.1,23.1,0,0,1-.78-6.1c0-14.8,11-24.29,27.53-24.29C719.22,52.86,726.23,54.67,730.78,59.87Zm-8.7,60.26-23.63-1.3c-4.94,3.51-8.57,7.4-8.57,12.73,0,5.71,3.9,10.78,21.43,10.78,15.71,0,23.12-4.8,23.12-13.12C734.41,124.28,731.95,120.65,722.08,120.13ZM711.17,60c-10.39,0-18.83,4.81-18.83,16.36,0,9.61,5.45,16.49,18.57,16.49,10.91,0,17.92-6.23,17.92-16.23C728.83,65.32,722.34,60,711.17,60Z"/><path class="b" d="M802.21,109.87c0,3.64.65,5.2,4,5.2a13.54,13.54,0,0,0,4-.78l.52,5.58a16.53,16.53,0,0,1-7.92,1.82c-6.1,0-8.31-3.77-8.57-8.31-4.93,5.19-12.73,8.7-22.08,8.7-16.88,0-19.61-11.56-19.61-17.92,0-18.83,17.14-22.34,32.21-22.34,3.77,0,6.1.13,8.7.26V75.45c0-10.13-2.86-15.58-14.41-15.58-10.52,0-14.16,4.16-15.58,11.95l-8.18-1.43c2.08-12.34,10.13-17.53,24.29-17.53,15.84,0,22.6,6.23,22.6,22.73Zm-8.57-20.78a64.35,64.35,0,0,0-8.18-.39c-9.09,0-23.77.65-23.77,14.16,0,6.49,2.34,12.21,12.6,12.21,7.66,0,15.2-4.29,19.35-9.09Z"/><path class="b" d="M856,61.95c-8.18-1.43-18.44,2.34-23.9,7.66v50.91h-8.7V54.16h7.14l.78,9.22c6.36-8.57,13.51-10.65,22.6-10.52H856Z"/><path class="b" d="M911.56,109.87c0,3.64.65,5.2,4,5.2a13.54,13.54,0,0,0,4-.78l.52,5.58a16.53,16.53,0,0,1-7.92,1.82c-6.1,0-8.31-3.77-8.57-8.31-4.93,5.19-12.73,8.7-22.08,8.7-16.88,0-19.61-11.56-19.61-17.92,0-18.83,17.14-22.34,32.21-22.34,3.77,0,6.1.13,8.7.26V75.45c0-10.13-2.86-15.58-14.41-15.58-10.52,0-14.16,4.16-15.58,11.95l-8.18-1.43C866.75,58.05,874.8,52.86,889,52.86c15.84,0,22.6,6.23,22.6,22.73ZM903,89.09a64.35,64.35,0,0,0-8.18-.39c-9.09,0-23.77.65-23.77,14.16,0,6.49,2.34,12.21,12.6,12.21,7.66,0,15.2-4.29,19.35-9.09Z"/><path class="b" d="M977,59.87c1.69-4,4.94-7.92,9.61-7.92a16.25,16.25,0,0,1,5.59.91v7.79a45.86,45.86,0,0,0-13.12,1.69c3,3.38,4.68,8.83,4.68,14.16,0,15.06-11.56,23.77-26.1,23.77a37.5,37.5,0,0,1-12.08-1.82c-2.21,1.95-5.06,4.42-5.06,7.53s1.56,4.93,9.61,5.32l18.44,1c13.51.78,21.17,4.29,21.17,17.14,0,16.23-18.05,20.39-33.63,20.39-24.94,0-29-9.48-29-16.75,0-8.18,6.1-13.12,10.78-16.36-3.9-1.17-6.49-4-6.49-8.44,0-5.32,3.9-8.83,8.18-12.21-4.54-2.34-7.92-7-9.35-12.86a23.1,23.1,0,0,1-.78-6.1c0-14.8,11-24.29,27.53-24.29C965.45,52.86,972.46,54.67,977,59.87Zm-8.7,60.26-23.64-1.3c-4.93,3.51-8.57,7.4-8.57,12.73,0,5.71,3.9,10.78,21.43,10.78,15.71,0,23.12-4.8,23.12-13.12C980.65,124.28,978.18,120.65,968.31,120.13ZM957.4,60C947,60,938.57,64.8,938.57,76.36c0,9.61,5.46,16.49,18.57,16.49,10.91,0,17.92-6.23,17.92-16.23C975.06,65.32,968.57,60,957.4,60Z"/><path class="b" d="M998.18,87.4c0-24.29,14-34.54,30.78-34.54,18.18,0,25.58,12.34,25.58,28.18-.13,2.6-.26,5.32-.65,8.05H1007.4c.52,19.87,9.74,25.19,21.3,25.19,10.39,0,14.68-4.29,16.75-12.6l8.18,1.56c-2.86,13.12-13.37,18.83-25.58,18.83C1004.93,122.08,998.18,105.71,998.18,87.4Zm47.27-5.32c.26-13.64-4.93-21.69-17.27-21.69-10.13,0-20,6.23-20.65,21.69Z"/><path class="b" d="M88.11,164.52a77.26,77.26,0,1,1,77.26-77.26A77.34,77.34,0,0,1,88.11,164.52Zm0-147a69.77,69.77,0,1,0,69.77,69.77A69.85,69.85,0,0,0,88.11,17.49Z"/><path class="a" d="M106.36,61,111,56.36a1.41,1.41,0,0,1,1-.41H127.2a1.41,1.41,0,0,1,1.41,1.41V62a1.41,1.41,0,0,1-1.41,1.41H107.36A1.41,1.41,0,0,1,106.36,61Z"/><path class="a" d="M47.61,62V57.36A1.41,1.41,0,0,1,49,55.95H64.2a1.41,1.41,0,0,1,1,.41L69.86,61a1.41,1.41,0,0,1-1,2.41H49A1.41,1.41,0,0,1,47.61,62Z"/><rect class="a" x="47.61" y="74.33" width="81" height="7.49" rx="1.41" ry="1.41"/><rect class="a" x="84.36" y="55.95" width="7.49" height="81" rx="1.41" ry="1.41" transform="translate(184.56 8.34) rotate(90)"/><rect class="a" x="84.37" y="74.32" width="7.49" height="81" rx="1.41" ry="1.41" transform="translate(202.93 26.72) rotate(90)"/></svg>