<?xml version="1.0" encoding="UTF-8" standalone="no"?>
<svg width="166px" height="166px" viewBox="0 0 166 166" version="1.1" xmlns="http://www.w3.org/2000/svg" xmlns:xlink="http://www.w3.org/1999/xlink" xmlns:sketch="http://www.bohemiancoding.com/sketch/ns">
    <!-- Generator: Sketch 3.2.2 (9983) - http://www.bohemiancoding.com/sketch -->
    <title>dark-monogram</title>
    <desc>Created with Sketch.</desc>
    <defs></defs>
    <g id="Page-1" stroke="none" stroke-width="1" fill="none" fill-rule="evenodd" sketch:type="MSPage">
        <g id="comp/dark-monogram" sketch:type="MSArtboardGroup" transform="translate(-43.000000, -50.000000)">
            <g id="dark-monogram" sketch:type="MSLayerGroup" transform="translate(45.000000, 52.000000)">
                <g id="Group" transform="translate(81.000000, 82.500000) scale(1, -1) translate(-81.000000, -82.500000) translate(30.000000, 50.000000)" fill="#FFFFFF" sketch:type="MSShapeGroup">
                    <g id="Rectangle-26-+-Rectangle-27" transform="translate(1.000000, 60.000000)">
                        <path d="M0,1 L0,6 L37,6 L27.0384615,1 L0,1 Z" id="Rectangle-26" transform="translate(18.500000, 3.500000) scale(1, -1) translate(-18.500000, -3.500000) "></path>
                        <path d="M64,1 L64,6 L101,6 L91.0384615,1 L64,1 Z" id="Rectangle-27" transform="translate(82.500000, 3.500000) scale(-1, -1) translate(-82.500000, -3.500000) "></path>
                    </g>
                    <rect id="Rectangle-24" x="0" y="31" width="102" height="5"></rect>
                    <rect id="Rectangle-25" x="0" y="46" width="102" height="5"></rect>
                    <rect id="Rectangle-24" x="0" y="16" width="102" height="5"></rect>
                    <rect id="Rectangle-24" x="0" y="0" width="102" height="5"></rect>
                </g>
                <circle id="Oval-42" stroke="#FF0000" stroke-width="4" sketch:type="MSShapeGroup" cx="81" cy="81" r="81"></circle>
            </g>
        </g>
    </g>
</svg>