<?xml version="1.0" encoding="UTF-8" standalone="no"?>
<svg width="172px" height="303px" viewBox="0 0 172 303" version="1.1" xmlns="http://www.w3.org/2000/svg" xmlns:xlink="http://www.w3.org/1999/xlink" xmlns:sketch="http://www.bohemiancoding.com/sketch/ns">
    <!-- Generator: Sketch 3.2.2 (9983) - http://www.bohemiancoding.com/sketch -->
    <title>dark-vertical</title>
    <desc>Created with Sketch.</desc>
    <defs></defs>
    <g id="Page-1" stroke="none" stroke-width="1" fill="none" fill-rule="evenodd" sketch:type="MSPage">
        <g id="comp/dark-vertical" sketch:type="MSArtboardGroup" transform="translate(-77.000000, -140.000000)">
            <g id="dark-vertical" sketch:type="MSLayerGroup" transform="translate(79.000000, 142.000000)">
                <path d="M16.6479592,266 L142.352041,266" id="Line" stroke="#FF0000" stroke-width="3" stroke-linecap="round" sketch:type="MSShapeGroup"></path>
                <g id="Group" transform="translate(84.500000, 84.000000) scale(1, -1) translate(-84.500000, -84.000000) translate(31.000000, 50.000000)" fill="#FFFFFF" sketch:type="MSShapeGroup">
                    <g id="Rectangle-26-+-Rectangle-27" transform="translate(1.000000, 63.000000)">
                        <path d="M0,5 L0,0 L39,0 L28.5,5 L0,5 Z" id="Rectangle-26"></path>
                        <path d="M106,5 L106,0 L67,0 L77.5,5 L106,5 Z" id="Rectangle-27"></path>
                    </g>
                    <rect id="Rectangle-24" x="0" y="32" width="106" height="5"></rect>
                    <rect id="Rectangle-25" x="0" y="47" width="106" height="5"></rect>
                    <rect id="Rectangle-24" x="0" y="17" width="106" height="5"></rect>
                    <rect id="Rectangle-24" x="0" y="0" width="106" height="5"></rect>
                </g>
                <circle id="Oval-42" stroke="#FF0000" stroke-width="4" sketch:type="MSShapeGroup" cx="84" cy="84" r="84"></circle>
                <path d="M19.8636364,242.454545 L16.3636364,232.954545 L16.3636364,247 L13,247 L13,228.818182 L18.0909091,228.818182 L21.8181818,239.409091 L25.5454545,228.818182 L30.5,228.818182 L30.5,247 L27.1590909,247 L27.1590909,232.909091 L23.6363636,242.454545 L19.8636364,242.454545 Z M47.8181818,239.568182 L45.4772727,231.613636 L43.1136364,239.568182 L47.8181818,239.568182 Z M50,247 L48.7045455,242.568182 L42.2272727,242.568182 L40.9090909,247 L37.2727273,247 L43.1818182,228.818182 L48.0909091,228.818182 L53.9545455,247 L50,247 Z M68.2727273,247.204545 C66.7727198,247.204545 65.3484916,246.973487 64,246.511364 C62.6515084,246.04924 61.4848534,245.333338 60.5,244.363636 L61.8409091,241.75 C62.8106109,242.568186 63.8522672,243.181816 64.9659091,243.590909 C66.079551,244.000002 67.3484777,244.204545 68.7727273,244.204545 C69.9090966,244.204545 70.7727243,244.000002 71.3636364,243.590909 C71.9545484,243.181816 72.25,242.590913 72.25,241.818182 C72.25,241.121209 71.9053065,240.617426 71.2159091,240.306818 C70.5265117,239.996211 69.068193,239.651517 66.8409091,239.272727 C64.7045348,238.939392 63.1969741,238.397731 62.3181818,237.647727 C61.4393895,236.897724 61,235.772735 61,234.272727 C61,232.651507 61.6060545,231.306824 62.8181818,230.238636 C64.0303091,229.170449 65.8030186,228.636364 68.1363636,228.636364 C69.5454616,228.636364 70.8901451,228.867422 72.1704545,229.329545 C73.450764,229.791669 74.4621175,230.431814 75.2045455,231.25 L74.0227273,233.75 C73.1136318,233.068178 72.1628838,232.549244 71.1704545,232.193182 C70.1780253,231.837119 69.1439448,231.659091 68.0681818,231.659091 C67.0681768,231.659091 66.2803059,231.837119 65.7045455,232.193182 C65.128785,232.549244 64.8409091,233.098481 64.8409091,233.840909 C64.8409091,234.537882 65.1931783,235.037877 65.8977273,235.340909 C66.6022763,235.643941 68.0908977,235.992422 70.3636364,236.386364 C72.4697075,236.750002 73.9545411,237.318178 74.8181818,238.090909 C75.6818225,238.86364 76.1136364,239.999992 76.1136364,241.5 C76.1136364,243.303039 75.4204615,244.70454 74.0340909,245.704545 C72.6477203,246.70455 70.727285,247.204545 68.2727273,247.204545 L68.2727273,247.204545 Z M84.25,247 L84.25,228.818182 L88.1136364,228.818182 L88.1136364,235.454545 L95.6136364,235.454545 L95.6136364,228.818182 L99.4772727,228.818182 L99.4772727,247 L95.6136364,247 L95.6136364,238.454545 L88.1136364,238.454545 L88.1136364,247 L84.25,247 Z M115.386364,247.227273 C112.68938,247.227273 110.746218,246.67046 109.556818,245.556818 C108.367418,244.443176 107.772727,242.719709 107.772727,240.386364 L107.772727,228.818182 L111.636364,228.818182 L111.636364,240.068182 C111.636364,241.522735 111.893937,242.553027 112.409091,243.159091 C112.924245,243.765155 113.916659,244.068182 115.386364,244.068182 C116.856068,244.068182 117.848482,243.765155 118.363636,243.159091 C118.87879,242.553027 119.136364,241.522735 119.136364,240.068182 L119.136364,228.818182 L123,228.818182 L123,240.386364 C123,242.719709 122.405309,244.443176 121.215909,245.556818 C120.026509,246.67046 118.083347,247.227273 115.386364,247.227273 L115.386364,247.227273 Z M131.295455,247 L131.295455,228.818182 L138.659091,228.818182 C140.643949,228.818182 142.185601,229.265147 143.284091,230.159091 C144.382581,231.053035 144.931818,232.310598 144.931818,233.931818 L144.931818,236.340909 C144.931818,237.916675 144.382581,239.132571 143.284091,239.988636 C142.185601,240.844701 140.643949,241.272727 138.659091,241.272727 L135.159091,241.272727 L135.159091,247 L131.295455,247 Z M135.159091,238.295455 L138.136364,238.295455 C139.181823,238.295455 139.931816,238.113638 140.386364,237.75 C140.840911,237.386362 141.068182,236.772732 141.068182,235.909091 L141.068182,234.272727 C141.068182,233.393935 140.840911,232.765153 140.386364,232.386364 C139.931816,232.007574 139.181823,231.818182 138.136364,231.818182 L135.159091,231.818182 L135.159091,238.295455 Z" id="MASHUP" fill="#FFFFFF" sketch:type="MSShapeGroup"></path>
                <path d="M21.7045455,300.227273 C19.128775,300.227273 17.1894005,299.662884 15.8863636,298.534091 C14.5833268,297.405297 13.9318182,295.848495 13.9318182,293.863636 L13.9318182,288.045455 C13.9318182,286.045445 14.5757511,284.469703 15.8636364,283.318182 C17.1515216,282.166661 19.0757448,281.590909 21.6363636,281.590909 C24.1363761,281.590909 25.9886303,282.034086 27.1931818,282.920455 C28.3977333,283.806823 29.0530298,285.265141 29.1590909,287.295455 L25.2954545,287.522727 C25.1893934,286.446964 24.890154,285.689396 24.3977273,285.25 C23.9053006,284.810604 22.9924309,284.590909 21.6590909,284.590909 C20.1590834,284.590909 19.1401542,284.890149 18.6022727,285.488636 C18.0643913,286.087124 17.7954545,287.045448 17.7954545,288.363636 L17.7954545,293.545455 C17.7954545,294.83334 18.0909061,295.768936 18.6818182,296.352273 C19.2727302,296.935609 20.3787798,297.227273 22,297.227273 C23.3787948,297.227273 24.2992401,296.935609 24.7613636,296.352273 C25.2234872,295.768936 25.4469698,294.803037 25.4318182,293.454545 L21.5454545,293.454545 L21.5454545,290.454545 L29.2954545,290.454545 L29.2954545,293.795455 C29.2954545,295.780313 28.666673,297.348479 27.4090909,298.5 C26.1515089,299.651521 24.2500127,300.227273 21.7045455,300.227273 L21.7045455,300.227273 Z M46.4772727,292.568182 L44.1363636,284.613636 L41.7727273,292.568182 L46.4772727,292.568182 Z M48.6590909,300 L47.3636364,295.568182 L40.8863636,295.568182 L39.5681818,300 L35.9318182,300 L41.8409091,281.818182 L46.75,281.818182 L52.6136364,300 L48.6590909,300 Z M63.25,290.454545 L67.6590909,290.454545 C68.6893991,290.454545 69.4090889,290.291668 69.8181818,289.965909 C70.2272748,289.64015 70.4318182,289.090913 70.4318182,288.318182 L70.4318182,286.909091 C70.4318182,286.13636 70.2272748,285.594699 69.8181818,285.284091 C69.4090889,284.973483 68.6893991,284.818182 67.6590909,284.818182 L63.25,284.818182 L63.25,290.454545 Z M63.25,300 L59.3863636,300 L59.3863636,281.818182 L68.4772727,281.818182 C70.3409184,281.818182 71.7765101,282.249996 72.7840909,283.113636 C73.7916717,283.977277 74.2954545,285.196962 74.2954545,286.772727 L74.2954545,288.340909 C74.2954545,289.659097 73.9545489,290.734844 73.2727273,291.568182 C72.5909057,292.401519 71.606067,292.954544 70.3181818,293.227273 L74.8181818,300 L70.4090909,300 L66.0454545,293.431818 L63.25,293.431818 L63.25,300 Z M91.9318182,292.568182 L89.5909091,284.613636 L87.2272727,292.568182 L91.9318182,292.568182 Z M94.1136364,300 L92.8181818,295.568182 L86.3409091,295.568182 L85.0227273,300 L81.3863636,300 L87.2954545,281.818182 L92.2045455,281.818182 L98.0681818,300 L94.1136364,300 Z M112.613636,300.227273 C110.037866,300.227273 108.098491,299.662884 106.795455,298.534091 C105.492418,297.405297 104.840909,295.848495 104.840909,293.863636 L104.840909,288.045455 C104.840909,286.045445 105.484842,284.469703 106.772727,283.318182 C108.060612,282.166661 109.984836,281.590909 112.545455,281.590909 C115.045467,281.590909 116.897721,282.034086 118.102273,282.920455 C119.306824,283.806823 119.962121,285.265141 120.068182,287.295455 L116.204545,287.522727 C116.098484,286.446964 115.799245,285.689396 115.306818,285.25 C114.814391,284.810604 113.901522,284.590909 112.568182,284.590909 C111.068174,284.590909 110.049245,284.890149 109.511364,285.488636 C108.973482,286.087124 108.704545,287.045448 108.704545,288.363636 L108.704545,293.545455 C108.704545,294.83334 108.999997,295.768936 109.590909,296.352273 C110.181821,296.935609 111.287871,297.227273 112.909091,297.227273 C114.287886,297.227273 115.208331,296.935609 115.670455,296.352273 C116.132578,295.768936 116.356061,294.803037 116.340909,293.454545 L112.454545,293.454545 L112.454545,290.454545 L120.204545,290.454545 L120.204545,293.795455 C120.204545,295.780313 119.575764,297.348479 118.318182,298.5 C117.0606,299.651521 115.159104,300.227273 112.613636,300.227273 L112.613636,300.227273 Z M128.363636,300 L128.363636,281.818182 L141.454545,281.818182 L141.454545,284.818182 L132.227273,284.818182 L132.227273,288.772727 L140.318182,288.772727 L140.318182,291.772727 L132.227273,291.772727 L132.227273,297 L141.454545,297 L141.454545,300 L128.363636,300 Z" id="GARAGE" fill="#FFFFFF" sketch:type="MSShapeGroup"></path>
            </g>
        </g>
    </g>
</svg>